WorkSans-Regular.ufo
<glyph name="dollar" format="1">
  <advance width="615"/>
  <unicode hex="0024"/>
  <outline>
    <contour>
      <point x="166" y="660"/>
      <point x="77" y="575"/>
      <point x="77" y="469" type="curve" smooth="yes"/>
      <point x="77" y="235"/>
      <point x="484" y="354"/>
      <point x="484" y="177" type="curve" smooth="yes"/>
      <point x="484" y="99"/>
      <point x="420" y="66"/>
      <point x="321" y="66" type="curve" smooth="yes"/>
      <point x="231" y="66"/>
      <point x="142" y="123"/>
      <point x="125" y="209" type="curve"/>
      <point x="51" y="171" type="line"/>
      <point x="89" y="60"/>
      <point x="184" y="0"/>
      <point x="319" y="0" type="curve" smooth="yes"/>
      <point x="462" y="0"/>
      <point x="559" y="70"/>
      <point x="559" y="183" type="curve" smooth="yes"/>
      <point x="559" y="421"/>
      <point x="153" y="303"/>
      <point x="153" y="475" type="curve" smooth="yes"/>
      <point x="153" y="548"/>
      <point x="207" y="592"/>
      <point x="314" y="592" type="curve" smooth="yes"/>
      <point x="410" y="592"/>
      <point x="454" y="558"/>
      <point x="493" y="469" type="curve"/>
      <point x="558" y="520" type="line"/>
      <point x="506" y="615"/>
      <point x="439" y="660"/>
      <point x="313" y="660" type="curve" smooth="yes"/>
    </contour>
    <contour>
      <point x="283" y="740" type="line"/>
      <point x="283" y="-80" type="line"/>
      <point x="352" y="-80" type="line"/>
      <point x="352" y="740" type="line"/>
    </contour>
  </outline>
</glyph>
<glyph name="parenleft" format="1">
  <advance width="391"/>
  <unicode hex="0028"/>
  <outline>
    <contour>
      <point x="170" y="629"/>
      <point x="97" y="469"/>
      <point x="97" y="281" type="curve"/>
      <point x="97" y="93"/>
      <point x="170" y="-67"/>
      <point x="311" y="-189" type="curve"/>
      <point x="357" y="-143" type="line"/>
      <point x="225" y="-22"/>
      <point x="179" y="98"/>
      <point x="179" y="281" type="curve"/>
      <point x="179" y="464"/>
      <point x="225" y="584"/>
      <point x="357" y="705" type="curve"/>
      <point x="311" y="751" type="line"/>
    </contour>
  </outline>
</glyph>
<glyph name="plus" format="1">
  <advance width="620"/>
  <unicode hex="002B"/>
  <outline>
    <contour>
      <point x="273" y="564" type="line"/>
      <point x="273" y="78" type="line"/>
      <point x="348" y="78" type="line"/>
      <point x="348" y="564" type="line"/>
    </contour>
    <contour>
      <point x="67" y="358" type="line"/>
      <point x="67" y="283" type="line"/>
      <point x="553" y="283" type="line"/>
      <point x="553" y="358" type="line"/>
    </contour>
  </outline>
</glyph>
<glyph name="period" format="1">
  <advance width="276"/>
  <unicode hex="002E"/>
  <outline>
    <contour>
      <point x="99" y="120"/>
      <point x="73" y="94"/>
      <point x="73" y="55" type="curve" smooth="yes"/>
      <point x="73" y="16"/>
      <point x="99" y="-10"/>
      <point x="138" y="-10" type="curve" smooth="yes"/>
      <point x="177" y="-10"/>
      <point x="203" y="16"/>
      <point x="203" y="55" type="curve" smooth="yes"/>
      <point x="203" y="94"/>
      <point x="177" y="120"/>
      <point x="138" y="120" type="curve" smooth="yes"/>
    </contour>
  </outline>
</glyph>
<glyph name="seven" format="1">
  <advance width="552"/>
  <unicode hex="0037"/>
  <outline>
    <contour>
      <point x="284" y="443"/>
      <point x="194" y="232"/>
      <point x="194" y="0" type="curve"/>
      <point x="276" y="0" type="line"/>
      <point x="276" y="223"/>
      <point x="345" y="410"/>
      <point x="512" y="585" type="curve"/>
      <point x="458" y="628" type="line"/>
    </contour>
    <contour>
      <point x="26" y="660" type="line"/>
      <point x="26" y="585" type="line"/>
      <point x="512" y="585" type="line"/>
      <point x="512" y="660" type="line"/>
    </contour>
  </outline>
</glyph>
<glyph name="nine" format="1">
  <advance width="599"/>
  <unicode hex="0039"/>
  <outline>
    <contour>
      <point x="149" y="670"/>
      <point x="61" y="587"/>
      <point x="61" y="456" type="curve" smooth="yes"/>
      <point x="61" y="325"/>
      <point x="149" y="242"/>
      <point x="282" y="242" type="curve" smooth="yes"/>
      <point x="356" y="242"/>
      <point x="445" y="273"/>
      <point x="467" y="359" type="curve"/>
      <point x="470" y="359" type="line"/>
      <point x="470" y="185"/>
      <point x="428" y="65"/>
      <point x="288" y="65" type="curve" smooth="yes"/>
      <point x="190" y="65"/>
      <point x="160" y="112"/>
      <point x="139" y="181" type="curve"/>
      <point x="60" y="139" type="line"/>
      <point x="98" y="42"/>
      <point x="167" y="-10"/>
      <point x="289" y="-10" type="curve" smooth="yes"/>
      <point x="455" y="-10"/>
      <point x="543" y="109"/>
      <point x="543" y="330" type="curve" smooth="yes"/>
      <point x="543" y="530"/>
      <point x="454" y="670"/>
      <point x="288" y="670" type="curve" smooth="yes"/>
    </contour>
    <contour>
      <point x="375" y="593"/>
      <point x="433" y="538"/>
      <point x="433" y="455" type="curve" smooth="yes"/>
      <point x="433" y="375"/>
      <point x="375" y="319"/>
      <point x="289" y="319" type="curve" smooth="yes"/>
      <point x="198" y="319"/>
      <point x="145" y="371"/>
      <point x="145" y="455" type="curve" smooth="yes"/>
      <point x="145" y="542"/>
      <point x="198" y="593"/>
      <point x="289" y="593" type="curve" smooth="yes"/>
    </contour>
  </outline>
</glyph>
<glyph name="A" format="1">
  <advance width="670"/>
  <unicode hex="0041"/>
  <outline>
    <contour>
      <point x="288" y="660" type="line"/>
      <point x="31" y="0" type="line"/>
      <point x="115" y="0" type="line"/>
      <point x="304" y="495" type="line"/>
      <point x="333" y="584" type="line"/>
      <point x="335" y="584" type="line"/>
      <point x="366" y="492" type="line"/>
      <point x="554" y="0" type="line"/>
      <point x="639" y="0" type="line"/>
      <point x="383" y="660" type="line"/>
    </contour>
    <contour>
      <point x="157" y="258" type="line"/>
      <point x="157" y="183" type="line"/>
      <point x="510" y="183" type="line"/>
      <point x="510" y="258" type="line"/>
    </contour>
    <contour>
      <point x="639" y="0" type="move" name="ogonek"/>
    </contour>
    <contour>
      <point x="335" y="660" type="move" name="top"/>
    </contour>
  </outline>
</glyph>
<glyph name="C" format="1">
  <advance width="674"/>
  <unicode hex="0043"/>
  <outline>
    <contour>
      <point x="562" y="199" type="line"/>
      <point x="533" y="110"/>
      <point x="464" y="65"/>
      <point x="376" y="65" type="curve" smooth="yes"/>
      <point x="239" y="65"/>
      <point x="154" y="164"/>
      <point x="154" y="330" type="curve" smooth="yes"/>
      <point x="154" y="497"/>
      <point x="245" y="595"/>
      <point x="380" y="595" type="curve" smooth="yes"/>
      <point x="468" y="595"/>
      <point x="522" y="555"/>
      <point x="551" y="479" type="curve"/>
      <point x="630" y="516" type="line"/>
      <point x="588" y="616"/>
      <point x="502" y="670"/>
      <point x="374" y="670" type="curve" smooth="yes"/>
      <point x="190" y="670"/>
      <point x="70" y="539"/>
      <point x="70" y="330" type="curve" smooth="yes"/>
      <point x="70" y="121"/>
      <point x="188" y="-10"/>
      <point x="376" y="-10" type="curve" smooth="yes"/>
      <point x="500" y="-10"/>
      <point x="600" y="56"/>
      <point x="642" y="169" type="curve"/>
    </contour>
    <contour>
      <point x="374" y="660" type="move" name="top"/>
    </contour>
    <contour>
      <point x="375" y="0" type="move" name="bottom"/>
    </contour>
  </outline>
</glyph>
<glyph name="Q" format="1">
  <advance width="752"/>
  <unicode hex="0051"/>
  <outline>
    <contour>
      <point x="336" y="20" type="line"/>
      <point x="334" y="-145"/>
      <point x="428" y="-193"/>
      <point x="534" y="-195" type="curve" smooth="yes"/>
      <point x="583" y="-196"/>
      <point x="648" y="-179"/>
      <point x="680" y="-151" type="curve"/>
      <point x="654" y="-77" type="line"/>
      <point x="629" y="-100"/>
      <point x="585" y="-114"/>
      <point x="536" y="-114" type="curve" smooth="yes"/>
      <point x="463" y="-114"/>
      <point x="401" y="-93"/>
      <point x="408" y="37" type="curve"/>
    </contour>
    <component base="O"/>
  </outline>
</glyph>
<glyph name="S" format="1">
  <advance width="635"/>
  <unicode hex="0053"/>
  <outline>
    <contour>
      <point x="166" y="670"/>
      <point x="73" y="580"/>
      <point x="73" y="474" type="curve" smooth="yes"/>
      <point x="73" y="224"/>
      <point x="497" y="345"/>
      <point x="497" y="174" type="curve" smooth="yes"/>
      <point x="497" y="103"/>
      <point x="429" y="65"/>
      <point x="327" y="65" type="curve" smooth="yes"/>
      <point x="219" y="65"/>
      <point x="151" y="113"/>
      <point x="116" y="189" type="curve"/>
      <point x="47" y="133" type="line"/>
      <point x="93" y="51"/>
      <point x="185" y="-10"/>
      <point x="325" y="-10" type="curve" smooth="yes"/>
      <point x="479" y="-10"/>
      <point x="580" y="65"/>
      <point x="580" y="178" type="curve" smooth="yes"/>
      <point x="580" y="433"/>
      <point x="157" y="305"/>
      <point x="157" y="483" type="curve" smooth="yes"/>
      <point x="157" y="546"/>
      <point x="215" y="595"/>
      <point x="320" y="595" type="curve" smooth="yes"/>
      <point x="417" y="595"/>
      <point x="465" y="561"/>
      <point x="505" y="474" type="curve"/>
      <point x="574" y="530" type="line"/>
      <point x="523" y="622"/>
      <point x="440" y="670"/>
      <point x="319" y="670" type="curve" smooth="yes"/>
    </contour>
    <contour>
      <point x="325" y="660" type="move" name="top"/>
    </contour>
    <contour>
      <point x="358" y="0" type="move" name="bottom"/>
    </contour>
  </outline>
</glyph>
<glyph name="T" format="1">
  <advance width="655"/>
  <unicode hex="0054"/>
  <outline>
    <contour>
      <point x="288" y="660" type="line"/>
      <point x="288" y="0" type="line"/>
      <point x="368" y="0" type="line"/>
      <point x="368" y="660" type="line"/>
    </contour>
    <contour>
      <point x="57" y="660" type="line"/>
      <point x="57" y="585" type="line"/>
      <point x="598" y="585" type="line"/>
      <point x="598" y="660" type="line"/>
    </contour>
    <contour>
      <point x="328" y="330" type="move" name="center"/>
    </contour>
    <contour>
      <point x="344" y="0" type="move" name="bottom"/>
    </contour>
    <contour>
      <point x="328" y="660" type="move" name="top"/>
    </contour>
  </outline>
</glyph>
<glyph name="X" format="1">
  <advance width="614"/>
  <unicode hex="0058"/>
  <outline>
    <contour>
      <point x="487" y="660" type="line"/>
      <point x="300" y="375" type="line"/>
      <point x="293" y="375" type="line"/>
      <point x="35" y="0" type="line"/>
      <point x="128" y="0" type="line"/>
      <point x="330" y="308" type="line"/>
      <point x="337" y="308" type="line"/>
      <point x="572" y="660" type="line"/>
    </contour>
    <contour>
      <point x="55" y="660" type="line"/>
      <point x="282" y="312" type="line"/>
      <point x="290" y="300" type="line"/>
      <point x="486" y="0" type="line"/>
      <point x="579" y="0" type="line"/>
      <point x="342" y="366" type="line"/>
      <point x="333" y="379" type="line"/>
      <point x="150" y="660" type="line"/>
    </contour>
  </outline>
</glyph>
<glyph name="underscore" format="1">
  <advance width="539"/>
  <unicode hex="005F"/>
  <outline>
    <contour>
      <point x="0" y="-97" type="line"/>
      <point x="0" y="-172" type="line"/>
      <point x="539" y="-172" type="line"/>
      <point x="539" y="-97" type="line"/>
    </contour>
  </outline>
</glyph>
<glyph name="grave" format="1">
  <advance width="500"/>
  <unicode hex="0060"/>
  <outline>
    <contour>
      <point x="129" y="750" type="line"/>
      <point x="227" y="583" type="line"/>
      <point x="292" y="583" type="line"/>
      <point x="216" y="750" type="line"/>
    </contour>
    <contour>
      <point x="250" y="500" type="move" name="_top"/>
    </contour>
  </outline>
</glyph>
<glyph name="a" format="1">
  <advance width="543"/>
  <unicode hex="0061"/>
  <outline>
    <contour>
      <point x="154" y="510"/>
      <point x="75" y="462"/>
      <point x="49" y="388" type="curve"/>
      <point x="108" y="345" type="line"/>
      <point x="135" y="408"/>
      <point x="185" y="440"/>
      <point x="251" y="440" type="curve" smooth="yes"/>
      <point x="326" y="440"/>
      <point x="368" y="396"/>
      <point x="368" y="330" type="curve" smooth="yes"/>
      <point x="368" y="112" type="line"/>
      <point x="368" y="102" type="line" smooth="yes"/>
      <point x="368" y="16"/>
      <point x="402" y="-10"/>
      <point x="461" y="-10" type="curve" smooth="yes"/>
      <point x="486" y="-10"/>
      <point x="507" y="-5"/>
      <point x="521" y="0" type="curve"/>
      <point x="526" y="63" type="line"/>
      <point x="514" y="60"/>
      <point x="499" y="58"/>
      <point x="486" y="58" type="curve" smooth="yes"/>
      <point x="458" y="58"/>
      <point x="448" y="70"/>
      <point x="448" y="94" type="curve" smooth="yes"/>
      <point x="448" y="340" type="line" smooth="yes"/>
      <point x="448" y="456"/>
      <point x="365" y="510"/>
      <point x="251" y="510" type="curve" smooth="yes"/>
    </contour>
    <contour>
      <point x="235" y="280" type="line" smooth="yes"/>
      <point x="106" y="258"/>
      <point x="40" y="199"/>
      <point x="40" y="124" type="curve" smooth="yes"/>
      <point x="40" y="34"/>
      <point x="116" y="-10"/>
      <point x="210" y="-10" type="curve" smooth="yes"/>
      <point x="298" y="-10"/>
      <point x="390" y="42"/>
      <point x="390" y="125" type="curve"/>
      <point x="368" y="168" type="line"/>
      <point x="368" y="102"/>
      <point x="294" y="60"/>
      <point x="214" y="60" type="curve" smooth="yes"/>
      <point x="157" y="60"/>
      <point x="123" y="82"/>
      <point x="123" y="124" type="curve" smooth="yes"/>
      <point x="123" y="171"/>
      <point x="168" y="198"/>
      <point x="256" y="216" type="curve" smooth="yes"/>
      <point x="414" y="245" type="line"/>
      <point x="403" y="308" type="line"/>
    </contour>
    <contour>
      <point x="521" y="0" type="move" name="ogonek"/>
    </contour>
    <contour>
      <point x="259" y="500" type="move" name="top"/>
    </contour>
  </outline>
</glyph>
<glyph name="f" format="1">
  <advance width="410"/>
  <unicode hex="0066"/>
  <outline>
    <contour>
      <point x="202" y="735"/>
      <point x="148" y="673"/>
      <point x="148" y="584" type="curve" smooth="yes"/>
      <point x="148" y="0" type="line"/>
      <point x="228" y="0" type="line"/>
      <point x="228" y="474" type="line"/>
      <point x="228" y="500" type="line"/>
      <point x="228" y="576" type="line" smooth="yes"/>
      <point x="228" y="636"/>
      <point x="261" y="662"/>
      <point x="319" y="662" type="curve" smooth="yes"/>
      <point x="342" y="662"/>
      <point x="360" y="657"/>
      <point x="376" y="647" type="curve"/>
      <point x="397" y="712" type="line"/>
      <point x="379" y="727"/>
      <point x="347" y="735"/>
      <point x="312" y="735" type="curve" smooth="yes"/>
    </contour>
    <contour>
      <point x="48" y="500" type="line"/>
      <point x="48" y="431" type="line"/>
      <point x="388" y="431" type="line"/>
      <point x="388" y="500" type="line"/>
    </contour>
  </outline>
</glyph>
<glyph name="g" format="1">
  <advance width="523"/>
  <unicode hex="0067"/>
  <outline>
    <contour>
      <point x="433" y="592"/>
      <point x="370" y="542"/>
      <point x="372" y="460" type="curve"/>
      <point x="422" y="439" type="line"/>
      <point x="420" y="497"/>
      <point x="460" y="522"/>
      <point x="530" y="522" type="curve"/>
      <point x="512" y="592" type="line"/>
    </contour>
    <component base="gbase" xOffset="-12"/>
    <contour>
      <point x="265" y="500" type="move" name="top"/>
    </contour>
  </outline>
</glyph>
<glyph name="h" format="1">
  <advance width="620"/>
  <unicode hex="0068"/>
  <outline>
    <contour>
      <point x="94" y="730" type="line"/>
      <point x="94" y="0" type="line"/>
      <point x="174" y="0" type="line"/>
      <point x="174" y="730" type="line"/>
    </contour>
    <contour>
      <point x="231" y="510"/>
      <point x="143" y="449"/>
      <point x="143" y="288" type="curve"/>
      <point x="174" y="265" type="line"/>
      <point x="174" y="393"/>
      <point x="256" y="440"/>
      <point x="329" y="440" type="curve" smooth="yes"/>
      <point x="398" y="440"/>
      <point x="452" y="403"/>
      <point x="452" y="292" type="curve" smooth="yes"/>
      <point x="452" y="0" type="line"/>
      <point x="532" y="0" type="line"/>
      <point x="532" y="320" type="line" smooth="yes"/>
      <point x="532" y="449"/>
      <point x="444" y="510"/>
      <point x="337" y="510" type="curve" smooth="yes"/>
    </contour>
  </outline>
</glyph>
<glyph name="v" format="1">
  <advance width="512"/>
  <unicode hex="0076"/>
  <outline>
    <contour>
      <point x="420" y="500" type="line"/>
      <point x="226" y="0" type="line"/>
      <point x="296" y="0" type="line"/>
      <point x="504" y="500" type="line"/>
    </contour>
    <contour>
      <point x="8" y="500" type="line"/>
      <point x="216" y="0" type="line"/>
      <point x="288" y="0" type="line"/>
      <point x="99" y="500" type="line"/>
    </contour>
  </outline>
</glyph>
<glyph name="x" format="1">
  <advance width="483"/>
  <unicode hex="0078"/>
  <outline>
    <contour>
      <point x="19" y="500" type="line"/>
      <point x="216" y="228" type="line"/>
      <point x="225" y="217" type="line"/>
      <point x="380" y="0" type="line"/>
      <point x="478" y="0" type="line"/>
      <point x="273" y="284" type="line"/>
      <point x="268" y="291" type="line"/>
      <point x="119" y="500" type="line"/>
    </contour>
    <contour>
      <point x="381" y="500" type="line"/>
      <point x="231" y="287" type="line"/>
      <point x="225" y="287" type="line"/>
      <point x="7" y="0" type="line"/>
      <point x="100" y="0" type="line"/>
      <point x="272" y="233" type="line"/>
      <point x="277" y="233" type="line"/>
      <point x="475" y="500" type="line"/>
    </contour>
  </outline>
</glyph>
<glyph name="yen" format="1">
  <advance width="594"/>
  <unicode hex="00A5"/>
  <outline>
    <contour>
      <point x="481" y="660" type="line"/>
      <point x="332" y="392" type="line"/>
      <point x="298" y="312" type="line"/>
      <point x="296" y="312" type="line"/>
      <point x="262" y="392" type="line"/>
      <point x="113" y="660" type="line"/>
      <point x="21" y="660" type="line"/>
      <point x="200" y="359" type="line"/>
      <point x="243" y="293" type="line"/>
      <point x="171" y="297" type="line"/>
      <point x="60" y="297" type="line"/>
      <point x="60" y="237" type="line"/>
      <point x="201" y="237" type="line"/>
      <point x="264" y="240" type="line"/>
      <point x="262" y="193" type="line"/>
      <point x="262" y="162" type="line"/>
      <point x="60" y="162" type="line"/>
      <point x="60" y="102" type="line"/>
      <point x="262" y="102" type="line"/>
      <point x="262" y="0" type="line"/>
      <point x="332" y="0" type="line"/>
      <point x="332" y="102" type="line"/>
      <point x="515" y="102" type="line"/>
      <point x="515" y="162" type="line"/>
      <point x="332" y="162" type="line"/>
      <point x="332" y="193" type="line"/>
      <point x="330" y="240" type="line"/>
      <point x="403" y="237" type="line"/>
      <point x="515" y="237" type="line"/>
      <point x="515" y="297" type="line"/>
      <point x="425" y="297" type="line"/>
      <point x="351" y="293" type="line"/>
      <point x="401" y="371" type="line"/>
      <point x="573" y="660" type="line"/>
    </contour>
  </outline>
</glyph>
<glyph name="brokenbar" format="1">
  <advance width="285"/>
  <unicode hex="00A6"/>
  <outline>
    <contour>
      <point x="108" y="730" type="line"/>
      <point x="108" y="367" type="line"/>
      <point x="177" y="367" type="line"/>
      <point x="177" y="730" type="line"/>
    </contour>
    <contour>
      <point x="108" y="195" type="line"/>
      <point x="108" y="-168" type="line"/>
      <point x="177" y="-168" type="line"/>
      <point x="177" y="195" type="line"/>
    </contour>
  </outline>
</glyph>
<glyph name="logicalnot" format="1">
  <advance width="620"/>
  <unicode hex="00AC"/>
  <outline>
    <contour>
      <point x="473" y="320" type="line"/>
      <point x="473" y="132" type="line"/>
      <point x="553" y="132" type="line"/>
      <point x="553" y="320" type="line"/>
    </contour>
    <component base="minus"/>
  </outline>
</glyph>
<glyph name="cedilla" format="1">
  <advance width="600"/>
  <unicode hex="00B8"/>
  <outline>
    <contour>
      <point x="331" y="-32"/>
      <point x="352" y="-55"/>
      <point x="352" y="-97" type="curve" smooth="yes"/>
      <point x="352" y="-132"/>
      <point x="327" y="-155"/>
      <point x="295" y="-155" type="curve" smooth="yes"/>
      <point x="267" y="-155"/>
      <point x="242" y="-142"/>
      <point x="226" y="-125" type="curve"/>
      <point x="196" y="-180" type="line"/>
      <point x="224" y="-205"/>
      <point x="259" y="-215"/>
      <point x="306" y="-215" type="curve" smooth="yes"/>
      <point x="380" y="-215"/>
      <point x="422" y="-164"/>
      <point x="422" y="-108" type="curve" smooth="yes"/>
      <point x="422" y="-54"/>
      <point x="380" y="4"/>
      <point x="297" y="29" type="curve"/>
      <point x="253" y="3" type="line"/>
    </contour>
    <contour>
      <point x="310" y="0" type="move" name="_bottom"/>
    </contour>
  </outline>
</glyph>
<glyph name="Oslash" format="1">
  <advance width="752"/>
  <unicode hex="00D8"/>
  <outline>
    <contour>
      <point x="601" y="683" type="line"/>
      <point x="99" y="-37" type="line"/>
      <point x="170" y="-37" type="line"/>
      <point x="672" y="683" type="line"/>
    </contour>
    <component base="O"/>
  </outline>
</glyph>
<glyph name="oslash" format="1">
  <advance width="614"/>
  <unicode hex="00F8"/>
  <outline>
    <contour>
      <point x="485" y="523" type="line"/>
      <point x="62" y="-37" type="line"/>
      <point x="129" y="-37" type="line"/>
      <point x="552" y="523" type="line"/>
    </contour>
    <component base="o"/>
  </outline>
</glyph>
<glyph name="thorn" format="1">
  <advance width="630"/>
  <unicode hex="00FE"/>
  <outline>
    <contour>
      <point x="94" y="730" type="line"/>
      <point x="94" y="-210" type="line"/>
      <point x="174" y="-210" type="line"/>
      <point x="174" y="730" type="line"/>
    </contour>
    <contour>
      <point x="223" y="510"/>
      <point x="145" y="432"/>
      <point x="145" y="337" type="curve"/>
      <point x="174" y="256" type="line"/>
      <point x="174" y="369"/>
      <point x="236" y="440"/>
      <point x="331" y="440" type="curve" smooth="yes"/>
      <point x="429" y="440"/>
      <point x="488" y="366"/>
      <point x="488" y="250" type="curve" smooth="yes"/>
      <point x="488" y="134"/>
      <point x="429" y="60"/>
      <point x="331" y="60" type="curve" smooth="yes"/>
      <point x="236" y="60"/>
      <point x="174" y="131"/>
      <point x="174" y="244" type="curve"/>
      <point x="145" y="163" type="line"/>
      <point x="145" y="68"/>
      <point x="223" y="-10"/>
      <point x="340" y="-10" type="curve" smooth="yes"/>
      <point x="479" y="-10"/>
      <point x="568" y="87"/>
      <point x="568" y="250" type="curve" smooth="yes"/>
      <point x="568" y="413"/>
      <point x="479" y="510"/>
      <point x="340" y="510" type="curve" smooth="yes"/>
    </contour>
  </outline>
</glyph>
<glyph name="gbreve" format="1">
  <advance width="555"/>
  <unicode hex="011F"/>
  <outline>
    <contour>
      <point x="447" y="592"/>
      <point x="384" y="542"/>
      <point x="386" y="460" type="curve"/>
      <point x="436" y="439" type="line"/>
      <point x="434" y="497"/>
      <point x="474" y="522"/>
      <point x="544" y="522" type="curve"/>
      <point x="526" y="592" type="line"/>
    </contour>
    <component base="gbase" xOffset="2"/>
    <component base="breve" xOffset="39"/>
    <contour>
      <point x="279" y="500" type="move" name="top"/>
    </contour>
  </outline>
</glyph>
<glyph name="Lslash" format="1">
  <advance width="597"/>
  <unicode hex="0141"/>
  <outline>
    <contour>
      <point x="3" y="279" type="line"/>
      <point x="3" y="196" type="line"/>
      <point x="365" y="398" type="line"/>
      <point x="365" y="481" type="line"/>
    </contour>
    <component base="L"/>
  </outline>
</glyph>
<glyph name="OE" format="1">
  <advance width="1089"/>
  <unicode hex="0152"/>
  <outline>
    <contour>
      <point x="184" y="670"/>
      <point x="70" y="539"/>
      <point x="70" y="330" type="curve" smooth="yes"/>
      <point x="70" y="121"/>
      <point x="186" y="-10"/>
      <point x="374" y="-10" type="curve" smooth="yes"/>
      <point x="538" y="-10"/>
      <point x="652" y="121"/>
      <point x="652" y="330" type="curve" smooth="yes"/>
      <point x="652" y="539"/>
      <point x="542" y="670"/>
      <point x="378" y="670" type="curve" smooth="yes"/>
    </contour>
    <contour>
      <point x="503" y="595"/>
      <point x="588" y="496"/>
      <point x="588" y="330" type="curve" smooth="yes"/>
      <point x="588" y="164"/>
      <point x="503" y="65"/>
      <point x="378" y="65" type="curve" smooth="yes"/>
      <point x="235" y="65"/>
      <point x="154" y="164"/>
      <point x="154" y="330" type="curve" smooth="yes"/>
      <point x="154" y="496"/>
      <point x="235" y="595"/>
      <point x="378" y="595" type="curve" smooth="yes"/>
    </contour>
    <contour>
      <point x="630" y="75" type="line"/>
      <point x="630" y="0" type="line"/>
      <point x="1030" y="0" type="line"/>
      <point x="1030" y="75" type="line"/>
    </contour>
    <contour>
      <point x="588" y="660" type="line"/>
      <point x="588" y="0" type="line"/>
      <point x="661" y="0" type="line"/>
      <point x="661" y="660" type="line"/>
    </contour>
    <contour>
      <point x="630" y="372" type="line"/>
      <point x="630" y="297" type="line"/>
      <point x="930" y="297" type="line"/>
      <point x="930" y="372" type="line"/>
    </contour>
    <contour>
      <point x="630" y="660" type="line"/>
      <point x="630" y="585" type="line"/>
      <point x="1015" y="585" type="line"/>
      <point x="1015" y="660" type="line"/>
    </contour>
    <contour>
      <point x="366" y="660" type="move" name="top"/>
    </contour>
  </outline>
</glyph>
<glyph name="uni0163" format="1">
  <advance width="423"/>
  <unicode hex="0163"/>
  <outline>
    <contour>
      <point x="264" y="-32"/>
      <point x="285" y="-55"/>
      <point x="285" y="-97" type="curve" smooth="yes"/>
      <point x="285" y="-132"/>
      <point x="260" y="-155"/>
      <point x="228" y="-155" type="curve" smooth="yes"/>
      <point x="200" y="-155"/>
      <point x="175" y="-142"/>
      <point x="159" y="-125" type="curve"/>
      <point x="129" y="-180" type="line"/>
      <point x="157" y="-205"/>
      <point x="192" y="-215"/>
      <point x="239" y="-215" type="curve" smooth="yes"/>
      <point x="313" y="-215"/>
      <point x="355" y="-164"/>
      <point x="355" y="-108" type="curve" smooth="yes"/>
      <point x="355" y="-54"/>
      <point x="315" y="6"/>
      <point x="227" y="28" type="curve"/>
      <point x="186" y="7" type="line"/>
    </contour>
    <component base="t"/>
  </outline>
</glyph>
<glyph name="caron" format="1">
  <advance width="500"/>
  <unicode hex="02C7"/>
  <outline>
    <contour>
      <point x="335" y="750" type="line"/>
      <point x="250" y="639" type="line"/>
      <point x="165" y="750" type="line"/>
      <point x="92" y="750" type="line"/>
      <point x="204" y="583" type="line"/>
      <point x="296" y="583" type="line"/>
      <point x="408" y="750" type="line"/>
    </contour>
    <contour>
      <point x="250" y="500" type="move" name="_top"/>
    </contour>
  </outline>
</glyph>
<glyph name="ogonek" format="1">
  <advance width="600"/>
  <unicode hex="02DB"/>
  <outline>
    <contour>
      <point x="253" y="22" type="line"/>
      <point x="164" y="-11"/>
      <point x="110" y="-49"/>
      <point x="110" y="-117" type="curve" smooth="yes"/>
      <point x="110" y="-177"/>
      <point x="157" y="-215"/>
      <point x="229" y="-215" type="curve" smooth="yes"/>
      <point x="258" y="-215"/>
      <point x="292" y="-209"/>
      <point x="311" y="-196" type="curve"/>
      <point x="295" y="-145" type="line"/>
      <point x="279" y="-156"/>
      <point x="256" y="-158"/>
      <point x="239" y="-158" type="curve" smooth="yes"/>
      <point x="200" y="-158"/>
      <point x="175" y="-139"/>
      <point x="175" y="-106" type="curve" smooth="yes"/>
      <point x="175" y="-68"/>
      <point x="198" y="-34"/>
      <point x="299" y="0" type="curve"/>
    </contour>
    <contour>
      <point x="299" y="0" type="move" name="_ogonek"/>
    </contour>
  </outline>
</glyph>
<glyph name="pi" format="1">
  <advance width="714"/>
  <unicode hex="03C0"/>
  <outline>
    <contour>
      <point x="688" y="500" type="line"/>
      <point x="24" y="500" type="line"/>
      <point x="24" y="433" type="line"/>
      <point x="688" y="433" type="line"/>
    </contour>
    <contour>
      <point x="160" y="500" type="line"/>
      <point x="160" y="0" type="line"/>
      <point x="240" y="0" type="line"/>
      <point x="240" y="500" type="line"/>
    </contour>
    <contour>
      <point x="456" y="500" type="line"/>
      <point x="456" y="125" type="line" smooth="yes"/>
      <point x="456" y="30"/>
      <point x="503" y="0"/>
      <point x="629" y="0" type="curve"/>
      <point x="645" y="67" type="line"/>
      <point x="569" y="67"/>
      <point x="536" y="83"/>
      <point x="536" y="136" type="curve" smooth="yes"/>
      <point x="536" y="500" type="line"/>
    </contour>
  </outline>
</glyph>
<glyph name="daggerdbl" format="1">
  <advance width="651"/>
  <unicode hex="2021"/>
  <outline>
    <contour>
      <point x="286" y="660" type="line"/>
      <point x="286" y="-210" type="line"/>
      <point x="366" y="-210" type="line"/>
      <point x="366" y="660" type="line"/>
    </contour>
    <contour>
      <point x="88" y="79" type="line"/>
      <point x="88" y="10" type="line"/>
      <point x="563" y="10" type="line"/>
      <point x="563" y="79" type="line"/>
    </contour>
    <contour>
      <point x="88" y="440" type="line"/>
      <point x="88" y="371" type="line"/>
      <point x="563" y="371" type="line"/>
      <point x="563" y="440" type="line"/>
    </contour>
  </outline>
</glyph>
<glyph name="guilsinglleft" format="1">
  <advance width="291"/>
  <unicode hex="2039"/>
  <outline>
    <contour>
      <point x="164" y="441" type="line"/>
      <point x="38" y="245" type="line"/>
      <point x="164" y="49" type="line"/>
      <point x="251" y="49" type="line"/>
      <point x="123" y="245" type="line"/>
      <point x="251" y="441" type="line"/>
    </contour>
  </outline>
</glyph>
<glyph name="Euro" format="1">
  <advance width="622"/>
  <unicode hex="20AC"/>
  <outline>
    <contour>
      <point x="178" y="670"/>
      <point x="76" y="539"/>
      <point x="76" y="330" type="curve" smooth="yes"/>
      <point x="76" y="121"/>
      <point x="176" y="-10"/>
      <point x="352" y="-10" type="curve" smooth="yes"/>
      <point x="462" y="-10"/>
      <point x="561" y="56"/>
      <point x="598" y="169" type="curve"/>
      <point x="525" y="196" type="line"/>
      <point x="501" y="107"/>
      <point x="427" y="60"/>
      <point x="353" y="60" type="curve" smooth="yes"/>
      <point x="231" y="60"/>
      <point x="156" y="164"/>
      <point x="156" y="330" type="curve" smooth="yes"/>
      <point x="156" y="497"/>
      <point x="237" y="600"/>
      <point x="357" y="600" type="curve" smooth="yes"/>
      <point x="430" y="600"/>
      <point x="491" y="558"/>
      <point x="514" y="482" type="curve"/>
      <point x="586" y="516" type="line"/>
      <point x="550" y="616"/>
      <point x="463" y="670"/>
      <point x="350" y="670" type="curve" smooth="yes"/>
    </contour>
    <contour>
      <point x="0" y="279" type="line"/>
      <point x="0" y="214" type="line"/>
      <point x="345" y="214" type="line"/>
      <point x="365" y="279" type="line"/>
    </contour>
    <contour>
      <point x="0" y="430" type="line"/>
      <point x="0" y="365" type="line"/>
      <point x="385" y="365" type="line"/>
      <point x="405" y="430" type="line"/>
    </contour>
  </outline>
</glyph>
<glyph name="summation" format="1">
  <advance width="618"/>
  <unicode hex="2211"/>
  <outline>
    <contour>
      <point x="384" y="268" type="line"/>
      <point x="57" y="-53" type="line"/>
      <point x="113" y="-100" type="line"/>
      <point x="484" y="261" type="line"/>
      <point x="484" y="268" type="line"/>
    </contour>
    <contour>
      <point x="57" y="-53" type="line"/>
      <point x="57" y="-128" type="line"/>
      <point x="573" y="-128" type="line"/>
      <point x="573" y="-53" type="line"/>
    </contour>
    <contour>
      <point x="57" y="585" type="line"/>
      <point x="384" y="268" type="line"/>
      <point x="484" y="268" type="line"/>
      <point x="484" y="275" type="line"/>
      <point x="113" y="632" type="line"/>
    </contour>
    <contour>
      <point x="57" y="660" type="line"/>
      <point x="57" y="585" type="line"/>
      <point x="573" y="585" type="line"/>
      <point x="573" y="660" type="line"/>
    </contour>
  </outline>
</glyph>
<glyph name="sterling.part" format="1">
  <advance width="602"/>
  <outline>
    <contour>
      <point x="221" y="670"/>
      <point x="133" y="585"/>
      <point x="133" y="467" type="curve" smooth="yes"/>
      <point x="133" y="349"/>
      <point x="275" y="289"/>
      <point x="275" y="173" type="curve" smooth="yes"/>
      <point x="275" y="105"/>
      <point x="237" y="44"/>
      <point x="155" y="44" type="curve" smooth="yes"/>
      <point x="128" y="44"/>
      <point x="108" y="55"/>
      <point x="108" y="76" type="curve" smooth="yes"/>
      <point x="108" y="94"/>
      <point x="122" y="105"/>
      <point x="154" y="105" type="curve" smooth="yes"/>
      <point x="248" y="105"/>
      <point x="316" y="-10"/>
      <point x="438" y="-10" type="curve" smooth="yes"/>
      <point x="524" y="-10"/>
      <point x="574" y="46"/>
      <point x="574" y="153" type="curve"/>
      <point x="509" y="153" type="line"/>
      <point x="508" y="83"/>
      <point x="484" y="54"/>
      <point x="427" y="54" type="curve" smooth="yes"/>
      <point x="325" y="54"/>
      <point x="289" y="165"/>
      <point x="153" y="165" type="curve" smooth="yes"/>
      <point x="78" y="165"/>
      <point x="35" y="123"/>
      <point x="35" y="76" type="curve" smooth="yes"/>
      <point x="35" y="26"/>
      <point x="77" y="-10"/>
      <point x="145" y="-10" type="curve" smooth="yes"/>
      <point x="269" y="-10"/>
      <point x="333" y="85"/>
      <point x="335" y="168" type="curve" smooth="yes"/>
      <point x="339" y="318"/>
      <point x="211" y="367"/>
      <point x="207" y="480" type="curve" smooth="yes"/>
      <point x="207" y="550"/>
      <point x="258" y="597"/>
      <point x="340" y="597" type="curve" smooth="yes"/>
      <point x="419" y="597"/>
      <point x="455" y="552"/>
      <point x="474" y="476" type="curve"/>
      <point x="543" y="514" type="line"/>
      <point x="514" y="619"/>
      <point x="449" y="670"/>
      <point x="344" y="670" type="curve" smooth="yes"/>
    </contour>
  </outline>
</glyph>
